<?xml version="1.0" encoding="utf-8"?>
<!-- Generator: Adobe Illustrator 23.0.6, SVG Export Plug-In . SVG Version: 6.00 Build 0)  -->
<svg version="1.1" id="圖層_1" xmlns="http://www.w3.org/2000/svg" xmlns:xlink="http://www.w3.org/1999/xlink" x="0px" y="0px"
	 viewBox="0 0 34 34" style="enable-background:new 0 0 34 34;" xml:space="preserve">
<style type="text/css">
	.st0{fill:#231815;}
</style>
<g>
	<rect x="15" y="0" class="st0" width="3" height="7"/>
	<rect x="15" y="27" class="st0" width="3" height="7"/>
	<rect x="27" y="15" class="st0" width="7" height="3"/>
	<path class="st0" d="M7,16c0,5.6,4,10,9,10l0,0l0,0c5.4-0.2,9.8-4.6,10-10c0-5-4.4-9-10-9l0,0c-2.3-0.1-4.5,0.7-6.2,2.2
		c-1.7,1.6-2.7,3.7-2.8,6l0,0V15H0v3h7V16z M15.7,10h0.1h0.1l0,0l0,0c3.2-0.1,5.9,2.5,6,5.7c0,0.1,0,0.2,0,0.3
		c0.1,3.2-2.5,5.9-5.7,6c-0.1,0-0.2,0-0.3,0c-1.6,0-3-0.5-4.2-1.6S10,17.8,10,16.3c0-0.1,0-0.2,0-0.3C9.9,12.8,12.5,10.1,15.7,10z"
		/>
	<rect x="22.5" y="5.1" transform="matrix(0.7073 -0.707 0.707 0.7073 2.786 20.2151)" class="st0" width="6.6" height="3.3"/>
	<rect x="3.4" y="24.1" transform="matrix(0.707 -0.7073 0.7073 0.707 -16.2846 12.2857)" class="st0" width="6.6" height="3.3"/>
	<rect x="24.1" y="22.5" transform="matrix(0.7071 -0.7071 0.7071 0.7071 -10.716 25.785)" class="st0" width="3.3" height="6.6"/>
	<rect x="5.1" y="3.4" transform="matrix(0.7071 -0.7071 0.7071 0.7071 -2.7767 6.7145)" class="st0" width="3.3" height="6.6"/>
</g>
</svg>
