<?xml version="1.0" encoding="utf-8"?>
<!-- Generator: Adobe Illustrator 23.0.6, SVG Export Plug-In . SVG Version: 6.00 Build 0)  -->
<svg version="1.1" id="圖層_1" xmlns="http://www.w3.org/2000/svg" xmlns:xlink="http://www.w3.org/1999/xlink" x="0px" y="0px"
	 viewBox="0 0 20 26" style="enable-background:new 0 0 20 26;" xml:space="preserve">
<g>
	<path d="M10,0C4.5,0,0,4.5,0,10c0,8.4,9,15.5,9.4,15.8C9.6,25.9,9.8,26,10,26s0.4-0.1,0.6-0.2C11,25.5,20,18.4,20,10
		C20,4.5,15.5,0,10,0z M10,23.7C8,22,2,16.2,2,10c0-4.4,3.6-8,8-8s8,3.6,8,8C18,16.2,12,22,10,23.7z"/>
	<path d="M10,6c-2.2,0-4,1.8-4,4s1.8,4,4,4c2.2,0,4-1.8,4-4S12.2,6,10,6z M10,12c-1.1,0-2-0.9-2-2s0.9-2,2-2c1.1,0,2,0.9,2,2
		S11.1,12,10,12z"/>
</g>
</svg>
