<?xml version="1.0" encoding="utf-8"?>
<!-- Generator: Adobe Illustrator 23.0.6, SVG Export Plug-In . SVG Version: 6.00 Build 0)  -->
<svg version="1.1" id="圖層_1" xmlns="http://www.w3.org/2000/svg" xmlns:xlink="http://www.w3.org/1999/xlink" x="0px" y="0px"
	 viewBox="0 0 26 26" style="enable-background:new 0 0 26 26;" xml:space="preserve">
<style type="text/css">
	.st0{fill:#231815;}
</style>
<g>
	<path class="st0" d="M13,0C5.8,0,0,5.8,0,13c0,7.2,5.8,13,13,13c7.2,0,13-5.8,13-13C26,5.8,20.2,0,13,0z M13,24C6.9,24,2,19.1,2,13
		S6.9,2,13,2s11,4.9,11,11S19.1,24,13,24z"/>
	<path class="st0" d="M14.2,10.6v-6h-2V13c0,0.4,0.2,0.8,0.6,0.9C13,14,13.1,14,13.2,14c0.3,0,0.5-0.1,0.7-0.3l4.2-4.2l-1.4-1.4
		L14.2,10.6z"/>
</g>
</svg>
