<?xml version="1.0" encoding="utf-8"?>
<!-- Generator: Adobe Illustrator 23.0.6, SVG Export Plug-In . SVG Version: 6.00 Build 0)  -->
<svg version="1.1" id="圖層_1" xmlns="http://www.w3.org/2000/svg" xmlns:xlink="http://www.w3.org/1999/xlink" x="0px" y="0px"
	 viewBox="0 0 26 23" style="enable-background:new 0 0 26 23;" xml:space="preserve">
<path d="M1,23c-0.1,0-0.2,0-0.3-0.1C0.3,22.8,0,22.4,0,22C0,11.9,4.5,6.4,13,6V1c0-0.4,0.2-0.8,0.6-0.9C14-0.1,14.4,0,14.7,0.3
	l11,10.5c0.2,0.2,0.3,0.4,0.3,0.7s-0.1,0.5-0.3,0.7l-11,10.5c-0.3,0.3-0.7,0.4-1.1,0.2C13.2,22.8,13,22.4,13,22v-5
	c-6,0.2-8.3,1.9-11.2,5.6C1.6,22.9,1.3,23,1,23z M14,15c0.6,0,1,0.4,1,1v3.7l8.6-8.2L15,3.3V7c0,0.6-0.4,1-1,1
	C6.8,8,2.9,11.7,2.1,19.2C4.9,16.4,8,15,14,15z"/>
</svg>
