<?xml version="1.0" encoding="utf-8"?>
<!-- Generator: Adobe Illustrator 23.0.6, SVG Export Plug-In . SVG Version: 6.00 Build 0)  -->
<svg version="1.1" id="圖層_1" xmlns="http://www.w3.org/2000/svg" xmlns:xlink="http://www.w3.org/1999/xlink" x="0px" y="0px"
	 viewBox="0 0 32 25.2" style="enable-background:new 0 0 32 25.2;" xml:space="preserve">
<style type="text/css">
	.st0{fill:#231815;}
</style>
<path class="st0" d="M31.8,7.5L31.8,7.5c0-0.1,0.1-0.1,0.1-0.1c0,0,0,0,0,0c0,0,0-0.1,0-0.1V6.8c0,0,0-0.1,0-0.1c0,0,0,0,0,0
	c0,0,0,0,0-0.1l0,0c0,0,0,0,0,0l-5.2-6.1C26.4,0.1,26.2,0,25.9,0H6.1C5.8,0,5.6,0.1,5.4,0.3l-5.2,6c0,0,0,0,0,0l0,0c0,0,0,0,0,0.1
	c0,0,0,0,0,0c0,0,0,0.1,0,0.1v0.4c0,0,0,0.1,0,0.1c0,0,0,0,0,0c0,0,0,0,0,0.1l0,0c0,0,0,0,0,0l15.1,17.5l0,0l0.1,0.1l0,0h0
	c0,0,0.1,0,0.1,0c0,0,0,0,0,0c0,0,0,0,0.1,0h0.5c0,0,0,0,0.1,0c0,0,0,0,0,0c0,0,0,0,0.1,0h0l0,0l0.1-0.1l0,0L31.8,7.5
	C31.8,7.5,31.8,7.5,31.8,7.5z M8,7.8l5,11.7L2.8,7.8H8z M16.9,7.8h5.2l-5.2,12.3L16.9,7.8z M15.1,20.1L9.9,7.8h5.2V20.1z M24,7.8
	h5.1L19.1,19.6L24,7.8z M29.2,6H24l-1.8-4.2h3.3L29.2,6z M22.1,6h-5.2V1.8h3.4L22.1,6z M15.1,1.8V6H9.9l1.8-4.2H15.1z M6.5,1.8h3.3
	L8,6H2.8L6.5,1.8z"/>
</svg>
