<?xml version="1.0" encoding="utf-8"?>
<!-- Generator: Adobe Illustrator 23.0.6, SVG Export Plug-In . SVG Version: 6.00 Build 0)  -->
<svg version="1.1" id="圖層_1" xmlns="http://www.w3.org/2000/svg" xmlns:xlink="http://www.w3.org/1999/xlink" x="0px" y="0px"
	 viewBox="0 0 48 48" style="enable-background:new 0 0 48 48;" xml:space="preserve">
<g transform="translate(-64 -64)">
	<path d="M88,64c-13.3,0-24,10.7-24,24s10.7,24,24,24s24-10.7,24-24S101.3,64,88,64z M89.3,101.7h-3.8c-0.2,0-0.3-0.1-0.3-0.3v-3.8
		c0-0.2,0.1-0.3,0.3-0.3h3.8c0.2,0,0.3,0.1,0.3,0.3v3.8C89.6,101.6,89.5,101.7,89.3,101.7z M91.4,89.4c-2,1.4-2.3,2.6-2.3,3.8v1.4
		c0,0.2-0.2,0.4-0.4,0.4H86c-0.2,0-0.4-0.2-0.4-0.4v-1.4c0-2.7,1.5-5.3,3.9-6.7c2.4-1.6,3.8-2.6,3.8-4.9c0-1.5-0.9-2.7-2.7-3.6
		c-0.8-0.3-1.7-0.4-2.5-0.4c-1.2-0.1-2.5,0.3-3.5,1.1c-0.9,0.7-1.6,1.7-1.8,2.8c-0.1,0.4-0.1,0.9-0.1,1.3c0,0.2-0.2,0.4-0.4,0.4
		h-2.7c-0.2,0-0.4-0.1-0.4-0.3c0-0.5,0-1,0-1.5c0.3-2.1,1.4-4.1,3.1-5.3c1.6-1.2,3.6-1.9,5.6-1.8c1.4-0.1,2.8,0.2,4.1,0.7
		c3,1.4,4.7,3.8,4.7,6.7C96.8,85.8,93.9,87.7,91.4,89.4z"/>
</g>
</svg>
