<?xml version="1.0" encoding="utf-8"?>
<!-- Generator: Adobe Illustrator 23.0.6, SVG Export Plug-In . SVG Version: 6.00 Build 0)  -->
<svg version="1.1" id="圖層_1" xmlns="http://www.w3.org/2000/svg" xmlns:xlink="http://www.w3.org/1999/xlink" x="0px" y="0px"
	 viewBox="0 0 100 94" style="enable-background:new 0 0 100 94;" xml:space="preserve">
<path d="M50,94c-0.5,0-0.9-0.2-1.2-0.5c-1.5-1.3-37.5-32.9-46.6-57.3C-3.6,23.1,2.5,7.8,15.7,2.1s28.4,0.4,34.1,13.6
	c0.1,0.2,0.2,0.4,0.3,0.7C55.4,3.1,70.6-3.3,83.8,2.1c9.8,4,16.2,13.5,16.2,24c0,0.5,0,1-0.1,1.5c-0.1,23.2-46.7,64.1-48.7,65.9
	C50.9,93.8,50.5,94,50,94z M25.9,3.8c-12.3,0-22.2,9.9-22.2,22.2c0,3,0.6,6,1.8,8.8c0,0,0,0.1,0,0.1C13.5,56,43.5,83.8,50,89.6
	c7.5-6.7,46.2-42.5,46.2-62c0,0,0-0.1,0-0.1c0-0.5,0-0.9,0-1.4c0-12.2-9.9-22.2-22.2-22.2c-12.2,0-22.2,9.9-22.2,22.2
	c0,0.1,0,0.2,0,0.3l0,0.3c0,0.5-0.2,1-0.5,1.4c-0.8,0.7-2,0.7-2.7,0c-0.4-0.4-0.6-0.9-0.5-1.4l0-0.2c0-0.2,0-0.4,0-0.6
	C48.1,13.7,38.2,3.8,25.9,3.8z"/>
</svg>
