<?xml version="1.0" encoding="utf-8"?>
<!-- Generator: Adobe Illustrator 23.0.6, SVG Export Plug-In . SVG Version: 6.00 Build 0)  -->
<svg version="1.1" id="圖層_1" xmlns="http://www.w3.org/2000/svg" xmlns:xlink="http://www.w3.org/1999/xlink" x="0px" y="0px"
	 viewBox="0 0 100 100" style="enable-background:new 0 0 100 100;" xml:space="preserve">
<style type="text/css">
	.st0{fill:#231815;}
</style>
<g>
	<polygon class="st0" points="50,100 50,100 50,100 	"/>
	<path class="st0" d="M100,50c0-27.6-22.4-50-50-50C22.4,0,0,22.4,0,50c0,27.6,22.4,50,50,50C77.6,100,100,77.6,100,50z M50,96
		C24.6,96,4,75.4,4,50S24.6,4,50,4s46,20.6,46,46S75.4,96,50,96z"/>
	<polygon class="st0" points="50,85.4 50,85.4 50,85.4 	"/>
	<path class="st0" d="M50,14.6c-19.5,0-35.4,15.8-35.4,35.4c0,19.5,15.8,35.4,35.4,35.4c19.5,0,35.3-15.8,35.4-35.4
		C85.4,30.5,69.5,14.6,50,14.6z M50,81.4c-0.1,0-0.2,0-0.4,0c-17.3-0.1-31.3-14.2-31.2-31.6C18.5,32.5,32.7,18.5,50,18.6
		c17.2,0.1,31.1,14,31.2,31.2C81.3,67.2,67.3,81.3,50,81.4z"/>
	<path class="st0" d="M65.3,31.8L52.8,44.4C51.9,44,51,43.8,50,43.8c-1,0-1.9,0.2-2.8,0.6l-9.1-9.1c-0.8-0.8-2-0.8-2.8,0
		c-0.8,0.8-0.8,2,0,2.8l9.1,9.1C44,48.1,43.8,49,43.8,50c0,3.4,2.8,6.2,6.2,6.2c1.7,0,3.2-0.7,4.4-1.8c1.2-1.2,1.8-2.8,1.8-4.4
		c0-1-0.2-1.9-0.6-2.8l12.6-12.6c0.7-0.8,0.7-2,0-2.8C67.4,31.1,66.1,31.1,65.3,31.8z M51.6,51.6c-0.9,0.8-2.3,0.8-3.2,0
		c-0.9-0.9-0.9-2.3,0-3.1c0,0,0,0,0,0c0,0,0,0,0,0c0.4-0.4,1-0.6,1.6-0.6l0,0c0.5,0,1,0.2,1.4,0.5c0.1,0.1,0.2,0.2,0.3,0.3
		C52.4,49.5,52.4,50.8,51.6,51.6z"/>
</g>
</svg>
