<?xml version="1.0" encoding="utf-8"?>
<!-- Generator: Adobe Illustrator 23.0.6, SVG Export Plug-In . SVG Version: 6.00 Build 0)  -->
<svg version="1.1" id="圖層_1" xmlns="http://www.w3.org/2000/svg" xmlns:xlink="http://www.w3.org/1999/xlink" x="0px" y="0px"
	 viewBox="0 0 41.1 58.4" style="enable-background:new 0 0 41.1 58.4;" xml:space="preserve">
<style type="text/css">
	.st0{fill:#040000;}
</style>
<path class="st0" d="M40.6,20.5L40.6,20.5c0-11.1-9-20-20-20c-11.1,0-20,9-20,20c0,0-2.8,12.2,18.8,37.1c0,0,0.7,0.7,1.3,0.7
	c0.5,0,1.3-0.7,1.3-0.7C43.4,32.8,40.6,20.5,40.6,20.5z M20.5,32.4c-6.5,0-11.8-5.3-11.8-11.8S14,8.7,20.5,8.7S32.4,14,32.4,20.5
	S27.1,32.4,20.5,32.4z"/>
</svg>
