<?xml version="1.0" encoding="utf-8"?>
<!-- Generator: Adobe Illustrator 23.0.6, SVG Export Plug-In . SVG Version: 6.00 Build 0)  -->
<svg version="1.1" id="圖層_1" xmlns="http://www.w3.org/2000/svg" xmlns:xlink="http://www.w3.org/1999/xlink" x="0px" y="0px"
	 viewBox="0 0 100 100" style="enable-background:new 0 0 100 100;" xml:space="preserve">
<style type="text/css">
	.st0{fill:#231815;}
</style>
<g>
	<polygon class="st0" points="50,100 50,100 50,100 	"/>
	<path class="st0" d="M100,50c0-27.6-22.4-50-50-50C22.4,0,0,22.4,0,50c0,27.6,22.4,50,50,50C77.6,100,100,77.6,100,50z M50,96
		C24.6,96,4,75.4,4,50C4,24.6,24.6,4,50,4c25.4,0,46,20.6,46,46C96,75.4,75.4,96,50,96z"/>
	<path class="st0" d="M52,48.1V25.7c3,0.3,5.8,1.8,7.9,4c0.7,0.8,2,0.9,2.8,0.2c0,0,0,0,0,0c0.8-0.7,0.9-2,0.2-2.8
		c-2.8-3.1-6.7-5-10.9-5.4v-5.3c0-1.1-0.9-2-2-2s-2,0.9-2,2v5.5c-7.8,1.1-13.8,7.4-13.8,15s6,13.9,13.8,15v22.4
		c-5.6-1-9.8-5.6-9.8-11c0-1.1-0.9-2-2-2s-2,0.9-2,2c0,7.6,6,13.9,13.8,15v5.5c0,1.1,0.9,2,2,2c1.1,0,2-0.9,2-2v-5.3
		c8.2-0.7,14.7-7.2,14.7-15.1C66.7,55.4,60.3,48.9,52,48.1z M38.2,36.8c0-5.4,4.2-9.9,9.8-11v22C42.5,46.8,38.2,42.2,38.2,36.8z
		 M52,74.4V52.1c6,0.7,10.7,5.4,10.7,11.1S58,73.7,52,74.4z"/>
</g>
</svg>
