<?xml version="1.0" encoding="utf-8"?>
<!-- Generator: Adobe Illustrator 23.0.6, SVG Export Plug-In . SVG Version: 6.00 Build 0)  -->
<svg version="1.1" id="圖層_1" xmlns="http://www.w3.org/2000/svg" xmlns:xlink="http://www.w3.org/1999/xlink" x="0px" y="0px"
	 viewBox="0 0 100 70" style="enable-background:new 0 0 100 70;" xml:space="preserve">
<style type="text/css">
	.st0{fill:#050000;}
</style>
<path class="st0" d="M97.9,39.2c0-0.1,0-0.2-0.1-0.4l-11-32.2C86.1,4.1,84.2,2,81.7,1c-2.7-1.1-5.6-1.3-8.4-0.6
	c-1.1,0.3-1.7,1.3-1.5,2.4s1.3,1.8,2.4,1.5c2-0.5,4-0.4,5.9,0.4c1.4,0.5,2.4,1.6,2.8,3L90.8,31c-3.5-2.5-7.7-3.9-12.3-3.9
	c-10.9,0-19.9,8.1-21.3,18.7c-2.4-0.8-4.9-1.1-7.4-1.1c-2.4-0.1-4.8,0.3-7,1C41.3,35.1,32.4,27,21.5,27c-4.7,0-9,1.5-12.5,4.1
	l7.9-23.2L17,7.7c0.7-2.8,4.7-4.3,8.7-3.4l0,0c1.1,0.2,2.1-0.4,2.4-1.5s-0.4-2.1-1.5-2.4C20.3-1.1,14.3,1.7,13,6.6L2,38.8
	c0,0.3,0,0.5,0,0.7c0,0,0,0,0,0.1c-1.3,2.7-2,5.8-2,9C0,60.4,9.6,70,21.5,70c11.4,0,20.7-8.9,21.4-20.2c2.2-0.9,4.5-1.3,6.9-1.2
	c2.5,0,5,0.4,7.3,1.3C57.8,61.1,67.1,70,78.5,70c11.9,0,21.5-9.6,21.5-21.5C100,45.2,99.2,42,97.9,39.2z M21.5,66
	C11.8,66,4,58.2,4,48.5S11.8,31,21.5,31C31.1,31,39,38.9,39,48.5C39,58.2,31.1,66,21.5,66z M78.5,66C68.9,66,61,58.2,61,48.5
	S68.9,31,78.5,31C88.2,31,96,38.9,96,48.5C96,58.2,88.2,66,78.5,66z"/>
</svg>
