<?xml version="1.0" encoding="utf-8"?>
<!-- Generator: Adobe Illustrator 23.0.6, SVG Export Plug-In . SVG Version: 6.00 Build 0)  -->
<svg version="1.1" id="圖層_1" xmlns="http://www.w3.org/2000/svg" xmlns:xlink="http://www.w3.org/1999/xlink" x="0px" y="0px"
	 viewBox="0 0 28 21" style="enable-background:new 0 0 28 21;" xml:space="preserve">
<g>
	<path d="M14,8c-2.2,0-4,1.8-4,4c0,2.2,1.8,4,4,4c2.2,0,4-1.8,4-4C18,9.8,16.2,8,14,8z M14,14c-1.1,0-2-0.9-2-2c0-1.1,0.9-2,2-2
		c1.1,0,2,0.9,2,2C16,13.1,15.1,14,14,14z"/>
	<path d="M19.4,0L8.6,0C3.7,0.1-0.1,4.2,0,9c0,0.5,0.5,1,1,1l4.3,0C4.1,12.3,3,15.3,3,18c0,0.6,0.4,1,1,1h2v1c0,0.6,0.4,1,1,1
		s1-0.4,1-1v-1h12v1c0,0.6,0.4,1,1,1s1-0.4,1-1v-1h2c0.6,0,1-0.4,1-1c0-2.7-1.1-5.7-2.3-8H27c0.5,0,1-0.4,1-1
		C28.1,4.2,24.3,0.1,19.4,0z M5.1,17c0.3-2.5,1.5-5.4,2.7-7.4C8.9,9.1,9.6,8,9.6,6.7c0-0.4,0-0.7,1.1-0.7h6.6c1.1,0,1.1,0.3,1.1,0.7
		c0,0.9,0.3,1.7,0.9,2.3c0.3,0.3,0.6,0.5,0.9,0.7c1.2,2,2.4,4.9,2.7,7.3H5.1z M21.6,8c-0.3,0-0.6-0.1-0.9-0.4
		c-0.2-0.2-0.3-0.6-0.3-0.9c0-0.8-0.3-2.7-3.1-2.7h-6.6C7.9,4,7.6,5.9,7.6,6.7C7.6,7.4,7.1,8,6.4,8H2c0.4-3.3,3.2-5.9,6.6-6l10.8,0
		c3.4,0.1,6.2,2.7,6.6,6H21.6z"/>
</g>
</svg>
