<?xml version="1.0" encoding="utf-8"?>
<!-- Generator: Adobe Illustrator 23.0.6, SVG Export Plug-In . SVG Version: 6.00 Build 0)  -->
<svg version="1.1" id="圖層_1" xmlns="http://www.w3.org/2000/svg" xmlns:xlink="http://www.w3.org/1999/xlink" x="0px" y="0px"
	 viewBox="0 0 26 23" style="enable-background:new 0 0 26 23;" xml:space="preserve">
<path d="M25,23c-0.3,0-0.6-0.1-0.8-0.4C21.3,18.9,19,17.2,13,17v5c0,0.4-0.2,0.8-0.6,0.9c-0.4,0.2-0.8,0.1-1.1-0.2l-11-10.5
	C0.1,12,0,11.8,0,11.5s0.1-0.5,0.3-0.7l11-10.5C11.6,0,12-0.1,12.4,0.1C12.8,0.2,13,0.6,13,1v5c8.5,0.4,13,5.9,13,16
	c0,0.4-0.3,0.8-0.7,0.9C25.2,23,25.1,23,25,23z M2.4,11.5l8.6,8.2V16c0-0.6,0.4-1,1-1c6,0,9.1,1.4,11.9,4.2C23.1,11.7,19.2,8,12,8
	c-0.6,0-1-0.4-1-1V3.3L2.4,11.5z"/>
</svg>
