<?xml version="1.0" encoding="utf-8"?>
<!-- Generator: Adobe Illustrator 23.0.6, SVG Export Plug-In . SVG Version: 6.00 Build 0)  -->
<svg version="1.1" id="圖層_1" xmlns="http://www.w3.org/2000/svg" xmlns:xlink="http://www.w3.org/1999/xlink" x="0px" y="0px"
	 viewBox="0 0 50 50" style="enable-background:new 0 0 50 50;" xml:space="preserve">
<style type="text/css">
	.st0{fill:#231815;}
</style>
<g>
	<path class="st0" d="M25,11c-7.7,0-14,6.3-14,14s6.3,14,14,14s14-6.3,14-14S32.7,11,25,11z M25,15c5.5,0,10,4.5,10,10
		s-4.5,10-10,10s-10-4.5-10-10S19.5,15,25,15z"/>
	<rect x="23" y="0" class="st0" width="4" height="9"/>
	<rect x="23" y="41" class="st0" width="4" height="9"/>
	<rect x="41" y="23" class="st0" width="9" height="4"/>
	<rect y="23" class="st0" width="9" height="4"/>
	<rect x="35" y="8.5" transform="matrix(0.7071 -0.7071 0.7071 0.7071 4.1431 31.0021)" class="st0" width="9" height="4"/>
	<rect x="6" y="37.5" transform="matrix(0.707 -0.7072 0.7072 0.707 -24.8592 19.0009)" class="st0" width="9" height="4"/>
	<rect x="37.5" y="35" transform="matrix(0.7071 -0.7071 0.7071 0.7071 -16.3573 39.4997)" class="st0" width="4" height="9"/>
	<rect x="8.5" y="6" transform="matrix(0.7071 -0.7071 0.7071 0.7071 -4.353 10.5002)" class="st0" width="4" height="9"/>
</g>
</svg>
