<?xml version="1.0" encoding="utf-8"?>
<!-- Generator: Adobe Illustrator 23.0.6, SVG Export Plug-In . SVG Version: 6.00 Build 0)  -->
<svg version="1.1" id="圖層_1" xmlns="http://www.w3.org/2000/svg" xmlns:xlink="http://www.w3.org/1999/xlink" x="0px" y="0px"
	 viewBox="0 0 24 24" style="enable-background:new 0 0 24 24;" xml:space="preserve">
<style type="text/css">
	.st0{fill:#231815;}
</style>
<path class="st0" d="M17.5,14.6c2.8-4.4,1.5-10.3-2.9-13.1C10.2-1.3,4.3,0.1,1.5,4.5C-1.3,8.9,0,14.8,4.4,17.6c3.1,2,7.1,2,10.2-0.1
	l0.4-0.3l6.8,6.8l2.1-2.1l-6.8-6.8L17.5,14.6z M14.8,4.2c2.9,2.9,2.9,7.7,0,10.6c-2.9,2.9-7.7,2.9-10.6,0c-2.9-2.9-2.9-7.7,0-10.6
	C5.6,2.8,7.5,2,9.5,2C11.5,2,13.4,2.8,14.8,4.2z"/>
</svg>
